<?xml version="1.0" standalone="no"?>
<!DOCTYPE svg PUBLIC "-//W3C//DTD SVG 20010904//EN"
 "http://www.w3.org/TR/2001/REC-SVG-20010904/DTD/svg10.dtd">
<svg version="1.0" xmlns="http://www.w3.org/2000/svg"
 width="1038.000000pt" height="1038.000000pt" viewBox="0 0 1038.000000 1038.000000"
 preserveAspectRatio="xMidYMid meet">
<metadata>
Created by potrace 1.14, written by Peter Selinger 2001-2017
</metadata>
<g transform="translate(0.000000,1038.000000) scale(0.100000,-0.100000)"
fill="#000000" stroke="none">
<path d="M2975 10144 c-32 -8 -70 -21 -82 -29 -13 -9 -23 -13 -23 -10 0 9 -22
-15 -48 -51 -44 -64 -37 -134 22 -224 34 -51 110 -128 173 -173 24 -17 43 -34
43 -39 0 -4 5 -8 12 -8 6 0 25 -11 42 -24 46 -34 267 -165 381 -226 55 -29
141 -74 190 -100 50 -26 234 -121 409 -209 176 -89 325 -166 333 -172 7 -6 13
-9 13 -5 0 3 17 -4 38 -17 47 -28 74 -42 136 -65 l50 -19 -36 -12 c-19 -6 -48
-10 -64 -7 -16 2 -49 7 -74 10 -52 7 -62 9 -150 32 -61 15 -108 42 -148 84
-60 62 -262 171 -402 215 -220 69 -508 88 -750 50 -14 -2 -38 -6 -55 -9 -16
-2 -61 -12 -100 -21 -38 -9 -77 -18 -85 -20 -8 -2 -26 -8 -40 -13 -14 -5 -29
-11 -35 -12 -184 -46 -579 -253 -755 -396 -218 -178 -350 -320 -482 -520 -123
-187 -254 -488 -293 -674 -2 -8 -11 -51 -20 -95 -29 -139 -32 -159 -40 -253
-4 -42 -7 -79 -8 -82 -4 -22 18 -103 34 -124 25 -31 71 -55 90 -46 7 4 43 14
79 23 75 18 171 59 190 82 7 8 16 15 21 15 5 0 23 13 41 29 18 16 67 58 108
93 41 35 77 66 78 71 2 4 8 7 14 7 6 0 2 -12 -7 -27 -48 -73 -216 -418 -296
-608 -41 -98 -172 -440 -174 -455 -1 -3 -20 -63 -42 -135 -75 -234 -142 -509
-168 -691 -16 -113 -18 -149 -18 -279 1 -156 12 -213 50 -263 40 -52 78 -71
137 -68 47 3 129 34 166 63 8 7 44 35 80 62 l65 50 8 -27 c4 -15 7 -47 6 -72
-1 -25 4 -74 11 -110 6 -36 13 -75 14 -88 2 -12 6 -25 9 -29 4 -3 7 -16 7 -29
0 -12 9 -62 21 -111 12 -48 22 -95 24 -103 2 -8 9 -35 16 -60 7 -25 13 -51 15
-58 5 -25 37 -129 71 -232 40 -120 105 -259 141 -302 24 -28 24 -29 6 -51 -11
-12 -21 -24 -24 -27 -3 -3 -19 -25 -35 -50 -17 -25 -37 -53 -45 -62 -19 -21
-113 -206 -141 -278 -55 -141 -107 -334 -125 -460 -2 -19 -7 -46 -10 -60 -24
-125 -24 -497 1 -664 3 -17 7 -47 9 -66 13 -110 78 -325 127 -422 105 -206
285 -351 492 -395 43 -9 273 -9 317 0 19 3 46 9 60 11 14 3 56 13 94 23 67 17
69 17 80 -1 51 -87 114 -173 172 -235 58 -63 105 -104 262 -233 37 -30 198
-126 287 -170 91 -46 299 -135 335 -143 8 -2 44 -13 80 -25 71 -23 237 -66
285 -73 17 -3 37 -8 45 -11 8 -3 33 -8 55 -12 22 -3 49 -7 60 -9 37 -6 110
-16 155 -22 47 -5 78 -7 220 -18 94 -7 540 -8 635 -1 33 3 96 7 140 10 198 15
349 30 470 47 86 13 106 16 175 24 30 3 62 8 70 10 8 3 32 7 54 11 21 3 48 8
60 10 11 2 37 7 56 10 112 18 460 99 615 144 137 39 426 137 490 165 17 7 66
28 110 45 44 17 85 35 90 40 6 5 13 9 18 9 4 0 29 10 55 22 26 12 74 31 108
43 51 19 150 71 251 132 12 8 29 28 38 46 8 18 32 51 52 73 180 194 363 564
439 885 42 179 41 176 48 234 3 22 8 52 10 66 8 46 24 180 31 265 2 17 3 33 4
37 0 3 17 12 36 18 62 20 163 160 224 308 26 63 44 119 39 124 -1 2 3 12 9 23
6 11 14 36 17 55 3 19 7 44 10 55 9 47 19 155 19 220 2 350 -154 669 -408 832
-27 18 -55 37 -62 43 -7 5 -17 10 -23 10 -6 0 -15 10 -20 23 -7 18 -40 148
-55 217 -2 8 -15 64 -30 123 -15 59 -25 110 -23 112 3 3 24 -1 46 -9 23 -9 42
-13 42 -11 0 3 11 0 24 -5 45 -17 111 -25 206 -24 76 0 104 4 140 21 45 22
120 73 106 73 -4 0 4 15 17 33 31 42 58 101 64 141 3 17 8 50 12 73 8 43 6
279 -3 348 -9 64 -46 255 -63 320 -8 33 -17 67 -18 75 -26 113 -120 397 -171
517 -8 17 -14 33 -14 36 0 2 -8 22 -17 43 -9 22 -17 41 -18 44 0 3 -11 28 -24
55 -12 28 -24 55 -25 61 -1 7 -7 18 -12 25 -6 8 -17 30 -24 49 -8 19 -43 94
-80 166 l-66 131 34 -14 c51 -21 129 -24 176 -6 23 8 55 16 71 17 49 3 74 16
89 44 13 27 14 109 1 141 -4 9 -9 27 -11 41 -35 184 -212 612 -329 795 -19 31
-35 58 -35 61 0 3 -49 78 -109 167 -103 152 -163 232 -264 352 -52 62 -277
287 -337 337 -332 276 -692 468 -1080 576 -200 56 -352 76 -565 76 -171 0
-288 -14 -415 -50 -30 -9 -62 -18 -70 -19 -58 -14 -288 -117 -386 -173 -115
-67 -382 -261 -406 -296 -12 -17 -60 15 -68 44 -14 52 -75 168 -133 255 -33
50 -62 92 -66 95 -3 3 -19 23 -36 45 -50 66 -215 240 -295 309 -321 278 -696
467 -1035 522 -77 13 -253 11 -310 -2z m-1185 -1897 c0 -2 -10 -12 -22 -23
l-23 -19 19 23 c18 21 26 27 26 19z m-40 -51 c0 -2 -8 -10 -17 -17 -16 -13
-17 -12 -4 4 13 16 21 21 21 13z m1087 -4426 c-1 -12 -5 -16 -10 -11 -5 5 -6
14 -3 20 11 16 15 13 13 -9z m418 -2950 c3 -6 -1 -7 -9 -4 -18 7 -21 14 -7 14
6 0 13 -4 16 -10z m260 -152 c61 -31 127 -63 149 -72 21 -9 36 -19 33 -22 -3
-3 -13 -1 -24 4 -10 6 -53 26 -96 46 -88 40 -262 140 -272 156 -4 6 17 -5 47
-23 29 -19 103 -59 163 -89z m260 -119 c22 -10 29 -16 16 -13 -37 10 -88 33
-71 33 8 0 33 -9 55 -20z"/>
</g>
</svg>
